# xmcd
#
# Track frame offsets: 
#        150
#        15701
#        26000
#        34532
#        39848
#        50443
#        66388
#        74149
#        84055
#        97998
#        103109
#        111477
#        126261
#        141052
#        154735
#        170321
#        180339
#        188185
#
# Disc length: 2669 seconds
#
# Revision: 5
# Processed by: cddbd v1.5.2PL0 Copyright (c) Steve Scherf et al.
# Submitted via: ExactAudioCopy v0.99pb5
#
DISCID=ed0a6b12
DTITLE=Frank Sinatra - Frank Sinatra [CD3)
DYEAR=2002
DGENRE=Jazz
TTITLE0=Nancy With The Laughing Face
TTITLE1=Come Out, Come Out, Wherever You Are (Feat. Eileen Barton)
TTITLE2=Exactly Like You (Feat. Nat King Cole)
TTITLE3=Don't Bring Lulu (Feat. Jack Carson)
TTITLE4=No Can Do (Feat. Lena Romany)
TTITLE5=The Birth Of The Blues (Feat. Louis Armstrong)
TTITLE6=I Saw You First (Feat. Marcy McGuire)
TTITLE7=This Can't Be Love (Feat. Margaret Whiting)
TTITLE8=Yes Indeed (Feat. Sy Oliver)
TTITLE9=Figaro (Feat. Carlos Ramirez)
TTITLE10=Together (Feat. Eileen Barton)
TTITLE11=Embraceable You
TTITLE12=(I Don't Stand) A Ghost Of A Chance (With You)
TTITLE13=I Fall In Love With You Every Day
TTITLE14=Laura
TTITLE15=Love Me Or Leave Me
TTITLE16=S'wonderful
TTITLE17=You Do Something To Me
EXTD=YEAR: 2000
EXTT0=
EXTT1=
EXTT2=
EXTT3=
EXTT4=
EXTT5=
EXTT6=
EXTT7=
EXTT8=
EXTT9=
EXTT10=
EXTT11=
EXTT12=
EXTT13=
EXTT14=
EXTT15=
EXTT16=
EXTT17=
PLAYORDER=
